<?xml version="1.0" standalone="no"?>
<!DOCTYPE svg PUBLIC "-//W3C//DTD SVG 20010904//EN"
 "http://www.w3.org/TR/2001/REC-SVG-20010904/DTD/svg10.dtd">
<svg version="1.0" xmlns="http://www.w3.org/2000/svg"
 width="1852.000000pt" height="1852.000000pt" viewBox="0 0 1852.000000 1852.000000"
 preserveAspectRatio="xMidYMid meet">
<metadata>
Created by potrace 1.14, written by Peter Selinger 2001-2017
</metadata>
<g transform="translate(0.000000,1852.000000) scale(0.100000,-0.100000)"
fill="#000000" stroke="none">
<path d="M12050 14051 c-64 -21 -207 -107 -284 -172 -254 -210 -482 -437 -755
-751 -47 -54 -86 -96 -87 -95 -1 1 4 32 12 69 14 66 14 270 0 327 -41 173
-121 265 -264 301 -85 22 -294 7 -447 -31 -568 -142 -1109 -580 -1350 -1094
-31 -68 -72 -176 -80 -215 -2 -8 -8 -37 -14 -64 -7 -26 -14 -74 -17 -105 -4
-31 -12 -67 -20 -81 -7 -14 -40 -81 -73 -150 -157 -325 -323 -600 -461 -759
-49 -57 -104 -96 -120 -86 -37 23 62 292 233 640 123 250 180 386 180 431 0
92 -71 195 -178 259 -51 30 -82 33 -120 13 -32 -17 -178 -157 -250 -239 -22
-25 -67 -76 -100 -114 -82 -94 -118 -132 -110 -118 20 40 55 152 55 178 0 123
-140 250 -290 262 -72 6 -82 -3 -98 -99 -11 -64 -36 -123 -173 -399 -178 -363
-219 -437 -326 -593 -83 -121 -144 -191 -186 -213 l-29 -14 6 44 c10 70 71
239 149 407 54 117 97 230 97 254 0 37 -62 94 -144 135 -72 35 -155 61 -184
57 -18 -3 -42 -40 -42 -68 0 -55 -149 -395 -238 -543 -136 -227 -314 -362
-369 -278 -33 49 -8 210 58 383 120 315 334 622 485 695 51 25 141 26 177 2
36 -23 60 -63 62 -100 2 -37 35 -65 88 -74 54 -8 67 7 67 82 0 78 -30 178 -70
233 -36 50 -118 106 -183 126 -112 34 -298 11 -426 -53 -86 -42 -100 -51 -187
-118 -186 -142 -369 -391 -437 -594 -21 -61 -162 -274 -252 -379 -120 -140
-252 -237 -274 -201 -23 37 53 248 204 566 57 120 133 283 180 390 49 110 42
164 -31 237 -88 88 -237 145 -268 102 -8 -10 -12 -22 -10 -26 8 -13 -42 -131
-172 -407 -30 -62 -54 -115 -54 -117 0 -1 -17 -40 -38 -86 -21 -46 -51 -114
-67 -153 -16 -38 -53 -110 -83 -159 -142 -236 -258 -375 -319 -380 -53 -4 2
170 171 536 65 143 59 203 -25 246 -14 8 -48 30 -75 51 -109 81 -117 194 -25
364 135 250 140 291 50 357 -53 38 -123 59 -220 67 l-77 6 -44 -42 c-118 -108
-191 -382 -148 -554 11 -43 10 -48 -34 -138 -25 -52 -63 -128 -85 -169 -31
-57 -37 -77 -29 -87 22 -27 64 -51 100 -58 35 -7 38 -5 64 37 15 23 45 77 67
118 21 41 40 76 42 78 5 5 85 -49 85 -57 0 -4 -22 -56 -48 -116 -53 -119 -113
-294 -135 -391 -8 -33 -13 -92 -12 -131 6 -160 135 -296 296 -310 69 -7 133
13 192 58 47 37 177 169 177 181 0 4 4 8 8 8 5 0 16 -24 25 -53 20 -64 72
-128 135 -165 42 -24 57 -27 137 -27 82 0 96 3 157 34 86 44 213 153 311 269
42 51 79 87 81 80 39 -133 78 -208 145 -276 65 -66 139 -101 229 -109 115 -9
208 36 339 164 l72 71 27 -46 c34 -58 121 -144 171 -167 21 -10 63 -21 95 -23
81 -6 136 27 256 153 l96 101 32 -65 c55 -111 147 -180 249 -189 85 -7 121 26
103 98 -23 96 -21 135 7 186 82 147 394 559 568 749 10 11 -3 -25 -28 -79 -25
-55 -62 -138 -81 -185 -19 -47 -41 -99 -49 -116 -57 -127 -86 -307 -64 -405
33 -149 143 -246 284 -249 49 -2 71 4 121 29 112 55 268 227 411 450 63 98
233 407 234 425 0 5 9 -15 20 -45 93 -254 232 -383 429 -397 57 -4 70 -2 100
19 45 30 50 68 15 123 -91 147 -125 291 -120 515 4 164 43 294 153 509 123
242 301 483 497 674 218 213 426 333 593 342 53 4 65 1 82 -17 11 -12 21 -29
21 -37 6 -71 5 -83 -15 -180 -10 -47 -60 -187 -107 -301 -54 -132 -103 -235
-291 -620 -75 -151 -146 -297 -158 -325 -12 -27 -38 -84 -57 -125 -140 -302
-190 -477 -179 -622 7 -87 9 -98 31 -163 37 -107 94 -188 172 -242 42 -29 63
-36 115 -40 60 -5 65 -4 95 24 27 25 31 35 29 74 -2 24 -16 73 -31 109 -26 60
-27 71 -22 160 6 111 35 210 110 380 55 125 83 179 279 548 45 85 220 325 372
512 495 608 933 1077 1021 1092 42 7 14 -85 -85 -282 -51 -103 -159 -304 -220
-410 -21 -36 -54 -96 -75 -135 -20 -38 -50 -92 -65 -120 -240 -439 -377 -737
-475 -1030 -80 -240 -103 -367 -98 -537 8 -337 154 -622 408 -797 98 -68 221
-129 295 -146 3 -1 23 -6 45 -13 77 -22 101 -25 225 -28 91 -3 141 1 184 12
130 34 242 110 316 216 l50 71 -18 30 c-20 34 -66 66 -90 62 -10 -2 -20 -4
-24 -4 -4 -1 -23 -22 -43 -48 -67 -88 -138 -122 -269 -129 -191 -10 -387 81
-496 229 -82 111 -114 191 -134 335 -33 233 15 442 199 872 35 80 262 532 322
640 546 978 585 1065 546 1233 -35 156 -128 235 -283 243 -41 2 -86 0 -100 -5z"/>
<path d="M3109 13736 c-2 -2 -46 -7 -97 -10 -51 -4 -101 -9 -110 -11 -9 -1
-44 -6 -77 -9 -33 -4 -67 -9 -75 -11 -8 -2 -31 -6 -50 -9 -38 -7 -203 -41
-235 -49 -11 -3 -49 -12 -85 -21 -106 -25 -365 -113 -510 -173 -115 -48 -330
-152 -380 -183 -8 -5 -58 -35 -110 -66 -101 -61 -111 -68 -235 -160 -346 -255
-586 -548 -663 -808 -27 -88 -25 -257 3 -326 68 -166 215 -249 419 -237 44 2
90 7 101 10 228 63 597 327 1044 746 20 18 83 77 140 130 58 53 132 121 165
152 73 68 159 140 163 136 5 -5 -84 -201 -183 -405 l-94 -194 -54 31 c-59 34
-93 38 -135 16 -71 -36 -53 -154 38 -253 l30 -32 -48 -103 c-232 -492 -258
-644 -135 -794 85 -104 226 -155 308 -111 15 8 17 18 13 61 -3 29 -10 68 -15
88 -18 71 35 214 220 584 44 88 83 164 88 168 4 5 20 10 36 12 16 2 45 7 64
10 19 3 48 8 63 10 43 7 257 65 292 79 34 15 166 11 251 -8 47 -10 117 -51
142 -84 24 -31 27 -44 27 -106 -1 -58 -6 -83 -32 -138 -119 -255 -430 -529
-810 -716 -333 -163 -667 -247 -988 -246 -170 0 -211 25 -221 135 -10 114 -84
195 -155 170 -65 -23 -99 -88 -100 -194 -3 -227 153 -389 428 -447 72 -15 121
-18 263 -15 96 1 184 5 195 8 11 2 40 8 65 12 267 42 665 198 957 376 79 48
240 158 279 191 365 305 501 522 471 747 -22 175 -170 355 -359 440 l-62 27
65 34 c286 148 619 420 762 621 144 203 169 392 74 573 -89 169 -280 282 -557
331 -19 4 -48 9 -65 12 -34 6 -520 15 -526 9z m521 -241 c122 -19 245 -67 308
-120 60 -52 74 -85 76 -174 1 -67 -3 -82 -27 -124 -105 -179 -448 -429 -832
-609 -130 -60 -362 -151 -375 -146 -4 2 2 23 14 48 164 341 208 509 155 597
-50 85 -173 173 -259 187 -72 11 -171 -40 -344 -178 -50 -40 -108 -88 -128
-107 -20 -19 -52 -47 -70 -63 -29 -25 -188 -171 -287 -265 -51 -48 -202 -186
-227 -208 -11 -10 -49 -43 -84 -73 -34 -30 -68 -60 -74 -66 -35 -34 -222 -175
-291 -219 -102 -66 -157 -91 -224 -106 -53 -11 -55 -11 -78 15 -18 21 -22 35
-18 69 7 65 11 79 43 150 99 218 338 495 647 751 60 49 192 142 280 197 397
248 838 404 1260 444 39 4 71 8 73 10 6 5 420 -3 462 -10z"/>
<path d="M13955 13300 c-4 -6 -13 -39 -21 -73 -13 -57 -30 -107 -72 -212 -36
-91 -140 -329 -197 -450 -108 -229 -129 -274 -170 -365 -23 -52 -57 -125 -74
-163 -17 -37 -31 -71 -31 -76 0 -15 -177 -274 -247 -361 -213 -265 -435 -420
-625 -436 -55 -4 -61 -3 -88 25 -18 17 -31 41 -31 58 -2 31 -2 121 0 140 1 6
16 15 34 18 52 12 168 72 243 128 90 67 256 232 326 327 187 253 248 465 163
576 -45 59 -75 69 -205 69 -162 -1 -213 -13 -375 -91 -413 -198 -697 -642
-643 -1004 33 -217 161 -393 338 -465 67 -27 243 -30 335 -5 63 16 168 61 220
93 104 64 187 130 266 210 l45 47 2 -48 c5 -108 58 -218 132 -271 50 -36 123
-54 194 -48 194 17 508 345 811 847 31 52 58 96 59 98 2 1 31 -55 65 -124 58
-116 63 -131 66 -202 5 -135 -47 -266 -138 -347 -105 -95 -193 -85 -247 26
-37 78 -47 89 -76 89 -33 0 -43 -27 -40 -103 6 -121 87 -235 193 -271 61 -21
247 -16 318 9 152 52 304 154 458 305 102 102 108 106 113 81 45 -205 162
-345 330 -394 65 -19 193 -19 258 0 59 17 163 72 221 116 49 37 176 167 205
210 18 26 35 35 89 49 75 18 132 42 210 89 47 28 53 30 47 12 -18 -57 -23
-158 -11 -223 11 -58 65 -148 117 -195 82 -74 205 -99 252 -52 25 25 25 26 4
140 -12 67 -12 69 16 120 30 54 162 250 203 302 13 17 27 35 31 40 13 17 116
149 134 170 158 193 208 250 208 242 0 -2 -23 -56 -51 -118 -28 -63 -57 -128
-65 -145 -24 -55 -81 -207 -100 -269 -24 -81 -25 -232 -1 -299 30 -83 76 -138
152 -179 57 -31 183 -31 241 0 23 12 48 28 55 35 8 7 35 30 60 50 90 72 206
223 341 443 94 153 318 600 318 634 0 98 -131 109 -175 14 -182 -397 -405
-770 -550 -919 -41 -41 -92 -71 -103 -59 -3 3 2 41 12 84 16 78 44 157 92 259
13 29 24 54 24 57 0 2 34 75 76 162 209 433 224 470 217 532 -10 80 -89 183
-182 238 -81 47 -112 34 -260 -117 -46 -47 -136 -145 -199 -217 -62 -73 -115
-133 -117 -133 -1 0 9 28 23 63 51 125 40 198 -39 277 -60 59 -144 101 -219
107 -66 6 -90 -10 -90 -60 0 -76 -150 -406 -237 -521 -69 -90 -209 -232 -281
-283 -35 -25 -65 -44 -66 -42 -2 2 11 41 30 87 35 83 79 234 89 307 4 22 8 51
11 65 14 73 13 248 -2 306 -34 131 -134 194 -312 194 -139 0 -268 -64 -404
-201 -49 -48 -88 -92 -88 -97 0 -5 -29 -3 -65 3 -65 12 -66 12 -110 -17 -25
-17 -45 -33 -45 -36 0 -4 -15 -23 -33 -42 -63 -67 -144 -206 -203 -352 -42
-106 -108 -215 -177 -293 l-35 -40 0 91 c0 112 -27 199 -112 358 -73 138 -100
218 -100 294 0 96 29 151 133 257 58 57 77 94 77 144 0 99 -79 154 -220 155
-101 1 -147 -18 -235 -97 -128 -114 -196 -269 -191 -435 2 -72 -1 -83 -39
-167 -57 -123 -174 -327 -237 -410 -4 -5 -48 -65 -97 -131 -137 -187 -246
-295 -318 -318 -20 -7 -23 -4 -23 23 0 53 37 174 98 316 55 130 113 252 331
698 66 137 121 250 121 252 0 2 18 41 39 87 140 300 190 479 155 554 -22 47
-120 135 -185 167 -65 31 -133 44 -144 27z m-944 -994 c12 -15 -11 -89 -51
-165 -70 -134 -198 -289 -332 -403 -70 -59 -136 -103 -144 -95 -14 14 116 274
202 405 115 172 288 310 325 258z m3171 -62 c12 -38 2 -178 -17 -262 -31 -136
-85 -282 -158 -429 -45 -92 -57 -98 -115 -63 -64 39 -79 135 -41 270 21 78 32
106 80 205 62 128 117 211 180 276 44 45 59 46 71 3z m-547 -845 c28 -18 86
-48 129 -66 l79 -31 -59 -57 c-125 -119 -303 -162 -345 -83 -11 21 -14 90 -6
128 9 40 31 111 49 163 l21 58 41 -39 c23 -22 64 -54 91 -73z"/>
<path d="M5451 13104 c-78 -70 -141 -222 -141 -340 0 -59 3 -68 29 -95 35 -34
82 -38 176 -14 83 22 150 61 201 118 51 56 69 111 60 181 -12 105 -114 184
-238 186 -41 0 -54 -5 -87 -36z"/>
<path d="M16309 9996 c-2 -2 -35 -7 -74 -10 -38 -3 -80 -8 -92 -10 -11 -3 -43
-8 -70 -12 -26 -3 -57 -8 -68 -11 -11 -2 -42 -8 -70 -13 -27 -6 -64 -15 -81
-20 -17 -6 -40 -12 -50 -14 -44 -9 -175 -61 -258 -103 -285 -143 -481 -354
-584 -633 -67 -180 -86 -495 -41 -699 48 -223 187 -442 373 -590 209 -166 553
-309 906 -375 14 -3 88 -16 165 -31 122 -23 312 -59 441 -86 321 -64 524 -162
616 -294 96 -138 70 -330 -67 -493 -91 -108 -312 -212 -506 -239 -103 -14
-402 -7 -469 12 -8 2 -31 7 -50 10 -40 7 -57 12 -195 57 -175 57 -483 218
-739 385 -54 35 -99 63 -101 61 -18 -20 -435 -641 -435 -647 0 -11 345 -241
456 -304 200 -115 444 -213 654 -262 30 -7 226 -44 260 -50 170 -26 659 -27
825 -2 61 9 121 19 135 22 14 2 39 7 55 11 85 16 295 90 385 135 144 71 241
139 340 238 178 179 280 394 316 666 10 82 12 294 2 383 -33 302 -173 558
-408 744 -195 155 -544 286 -955 358 -33 5 -69 12 -80 14 -267 55 -672 160
-774 201 -173 69 -275 143 -326 236 -24 45 -29 66 -29 124 0 83 5 108 33 164
67 130 256 243 490 293 100 21 302 29 426 16 249 -26 537 -138 828 -321 53
-34 110 -70 126 -80 l28 -17 228 322 c126 177 224 323 218 325 -5 2 -39 25
-74 50 -177 130 -436 276 -605 344 -121 47 -304 97 -424 115 -19 3 -62 10 -95
16 -56 9 -577 22 -586 14z"/>
<path d="M477 9923 c-3 -5 -5 -961 -5 -2125 l0 -2118 409 0 409 0 0 865 0 865
1025 0 1025 0 0 375 0 375 -1025 0 -1025 0 0 525 0 525 1158 0 1157 0 -2 347
c-1 192 -2 354 -2 361 -1 9 -320 12 -1560 12 -858 0 -1562 -3 -1564 -7z"/>
<path d="M4380 7805 l0 -2125 408 0 407 0 0 2125 0 2125 -407 0 -408 0 0
-2125z"/>
<path d="M6232 7805 l0 -2125 1531 2 1532 3 1 358 1 357 -1124 0 -1123 0 0
1765 0 1765 -409 0 -408 0 -1 -2125z"/>
<path d="M9812 7805 l0 -2125 409 0 409 0 0 1072 c0 1025 1 1071 18 1052 9
-10 46 -55 82 -99 35 -44 74 -91 87 -105 20 -23 195 -234 270 -327 18 -21 46
-55 62 -74 16 -19 90 -108 166 -199 75 -91 145 -175 155 -187 10 -11 38 -45
62 -75 224 -275 423 -507 428 -501 20 25 108 130 121 148 10 11 46 54 80 96
63 75 89 106 203 243 32 39 70 85 85 101 14 17 66 80 116 140 49 61 94 115
100 121 5 6 145 173 310 372 165 198 302 358 304 356 2 -2 5 -482 5 -1066 l1
-1063 406 -3 407 -2 -1 2125 0 2125 -28 0 c-21 0 -38 -13 -75 -57 -27 -31 -80
-93 -119 -138 -38 -45 -142 -167 -230 -270 -88 -104 -165 -193 -170 -199 -6
-6 -46 -54 -90 -106 -44 -52 -94 -111 -112 -130 -17 -19 -42 -48 -54 -65 -13
-16 -26 -32 -29 -35 -6 -5 -115 -133 -389 -455 -85 -99 -175 -205 -201 -235
-26 -30 -155 -181 -286 -335 -131 -154 -243 -285 -249 -291 -5 -6 -30 -37 -55
-67 -25 -31 -50 -56 -56 -57 -10 0 -20 10 -78 80 -30 37 -58 70 -212 251 -55
63 -119 139 -144 169 -25 30 -101 119 -170 200 -69 80 -143 168 -165 195 -22
26 -47 55 -55 64 -9 9 -38 43 -66 76 -28 33 -133 157 -234 275 -100 118 -197
231 -214 251 -17 21 -47 56 -65 79 -19 24 -40 48 -45 54 -6 6 -36 40 -66 76
-30 36 -57 67 -60 70 -3 3 -53 61 -110 130 -58 69 -107 127 -110 130 -4 3 -70
80 -149 173 -122 143 -146 167 -171 167 l-28 0 0 -2125z"/>
</g>
</svg>
